<?xml version="1.0" encoding="utf-8"?>
<!-- Generator: Adobe Illustrator 24.2.1, SVG Export Plug-In . SVG Version: 6.00 Build 0)  -->
<svg version="1.1" id="Layer_1" xmlns="http://www.w3.org/2000/svg" xmlns:xlink="http://www.w3.org/1999/xlink" x="0px" y="0px"
	 viewBox="0 0 1099.4 266.3" style="enable-background:new 0 0 1099.4 266.3;" xml:space="preserve">
<style type="text/css">
	.st0{enable-background:new    ;}
	.st1{fill:#3B224B;}
	.st2{opacity:0.2;}
	.st3{fill:#2A1010;}
	.st4{fill:#573E61;}
	.st5{fill:#FFFFFF;}
	.st6{opacity:0.6;}
	.st7{fill:#22152B;}
	.st8{fill:#ED6CA6;}
	.st9{fill:#F8AB2E;}
	.st10{fill:#D72828;}
	.st11{fill:#89BD2A;}
	.st12{fill:#AD561D;}
	.st13{fill:#FFCE05;}
</style>
<g id="Layer_2_1_">
	<g id="Layer_1-2">
		<g class="st0">
			<path class="st1" d="M14.1,169.7c-1.6,5.6-2.4,11.7-2.4,18.3c0,2.9,0.3,5.8,0.8,8.7c0.5,2.9,1.2,5.7,2.2,8.3
				c2.1,5.6,5.6,9.9,10.7,12.8c3.3,1.8,7.3,2.7,11.9,2.7c7.3-0.1,13.6-1.6,19.1-4.6c5.5-3,10.2-7.1,14.1-12.3
				c3.9-5.2,7.2-11.2,9.8-18c2.6-6.8,4.7-14.1,6.2-21.8c1.5-7.7,2.6-15.6,3.2-23.6c0.6-8,1-15.8,1-23.4c0.1-7.6-0.1-14.8-0.4-21.4
				C90,88.8,89.6,83,89.2,78.1c-0.4-5-0.8-8.8-1.1-11.5l9,1.1c0,4.6,0.1,9.5,0.3,14.7c0.2,8.3,0.2,17,0.3,26.2
				c0,9.1-0.2,18.3-0.8,27.5c-0.5,9.2-1.6,18.1-3.1,26.8c-1.5,8.7-3.7,16.7-6.5,24.3c-2.9,7.5-6.6,14.1-11.1,19.8
				c-4.6,5.7-10.2,10.2-16.9,13.4c-6.7,3.2-14.6,4.9-23.9,5c-6.5,0.1-12-0.9-16.4-2.9c-4.4-2-7.9-4.7-10.5-8.1
				c-2.6-3.5-4.5-7.5-5.6-12c-1.1-4.6-1.5-9.4-1.4-14.5c0.2-5.1,0.8-10.2,2-15.4L14.1,169.7z M26.1,166.7c-0.4,2.3-0.8,5-1.1,7.9
				c-0.3,3-0.5,6-0.5,9c0,3,0.5,5.8,1.3,8.4c0.8,2.6,2.2,4.7,4.2,6.2c1.9,1.6,4.7,2.4,8.2,2.3c6.1-0.1,11-1.9,14.7-5.6
				c3.7-3.7,6.5-8.9,8.5-15.7s3.2-14.8,3.8-24.2c0.6-9.4,0.8-19.8,0.6-31.3c-0.2-11.5-0.6-23.9-1.1-37.1c-0.2-7.5-0.5-15.2-0.8-23
				l17.7,2.2c0.2,2,0.6,5.3,1,9.8c0.5,4.5,0.9,9.9,1.2,16.1c0.4,6.2,0.6,13.1,0.6,20.4c0.1,7.4-0.1,15-0.6,22.8
				c-0.4,7.8-1.3,15.5-2.5,23.1c-1.3,7.6-3,14.7-5.3,21.4c-2.3,6.7-5.2,12.7-8.7,17.9c-3.5,5.2-7.7,9.3-12.7,12.3
				c-5,3-10.8,4.5-17.6,4.6c-3.6,0-6.5-0.6-8.9-1.9c-3.6-2.1-6.2-5.2-7.8-9.5c-0.8-2.2-1.5-4.6-1.8-7.1c-0.4-2.5-0.6-5.1-0.6-7.7
				c0-3.9,0.2-7.6,0.8-11.1c0.6-3.5,1.4-6.5,2.3-8.9L26.1,166.7z"/>
			<path class="st1" d="M161.6,223.4c-8.5,0.1-15.9-1.2-22.2-4c-6.3-2.7-11.4-6.7-15.5-11.9s-7.1-11.3-9.1-18.5
				c-2-7.2-3.1-15.1-3.2-23.9c-0.2-20.2,4-35.4,12.5-45.7c8.5-10.3,20.9-15.5,37.1-15.6c9-0.1,16.9,1.3,23.7,4.3
				c6.7,2.9,12.3,7.1,16.7,12.5c4.4,5.4,7.7,11.8,10,19.3c2.2,7.4,3.4,15.6,3.5,24.4c0.1,12-1.9,22.5-6.1,31.3
				c-4.2,8.8-10.3,15.6-18.3,20.4C182.8,220.9,173.1,223.3,161.6,223.4z M137.6,126.6c-3,4.6-5.3,10.3-6.9,17
				c-1.6,6.8-2.4,14.6-2.3,23.5c0.1,6.7,0.9,13.2,2.5,19.5c1.6,6.3,4,11.8,7.2,16.5c2.9,4.4,6.3,7.8,10.4,10.3
				c4.1,2.5,8.8,3.7,14.2,3.7c0.3,0,0.5,0,0.7,0c0.1,0,0.3,0,0.4,0c-0.1,0-0.1,0-0.2,0c-0.1,0-0.1,0-0.2,0c-0.1,0-0.1,0-0.2,0
				l-0.1,0c0.1,0,0.1,0,0.2,0c1.7,0.1,3.9,0,6.4-0.2c2.6-0.2,5.4-0.8,8.5-1.8c3.1-1,6.1-2.6,9.1-4.9c3-2.2,5.8-5.3,8.2-9.3
				c2.5-4,4.5-9,6-15.3s2.2-13.9,2.1-22.9c-0.1-9-1-16.5-2.8-22.5c-1.8-6-4.1-11-6.9-14.8c-2.8-3.8-5.7-6.8-8.9-8.8
				c-3.1-2-6.1-3.5-9-4.3c-2.9-0.8-5.3-1.3-7.3-1.4c-2-0.1-3.2-0.1-3.7,0c-5.6,0.1-10.8,1.4-15.5,4
				C144.8,117.5,140.8,121.4,137.6,126.6z M165.1,115.6l0.1,0c0.1,0,0.9,0,2.5,0c1.6,0,3.6,0.4,6.1,1c2.5,0.6,5.1,1.9,8,3.7
				c2.8,1.8,5.5,4.4,8,7.8c2.5,3.4,4.6,7.9,6.2,13.6c1.6,5.6,2.5,12.6,2.6,21c0.1,8.2-0.5,15.2-1.8,20.8c-1.3,5.7-3,10.3-5.3,14
				c-2.2,3.7-4.7,6.5-7.3,8.6c-2.6,2-5.3,3.5-8,4.4c-2.7,0.9-5.2,1.4-7.5,1.6c-2.3,0.2-4.2,0.3-5.7,0.2c-0.1,0-0.3,0-0.4,0
				c0.1,0,0.1,0,0.2,0c0.1,0,0.1,0,0.2,0c0.1,0,0.1,0,0.2,0c0,0,0.1,0,0.1,0c0,0,0,0-0.1,0c-0.1,0-0.2,0-0.3,0c-0.1,0-0.3,0-0.5,0
				c-4.4,0-8.4-1-11.8-3.1c-3.4-2.1-6.3-5.1-8.8-8.8c-2.9-4.4-5.2-9.5-6.7-15.3c-1.5-5.8-2.3-11.9-2.3-18.2
				c-0.1-8.4,0.6-15.7,2.1-22c1.5-6.3,3.6-11.6,6.4-15.9c2.9-4.4,6.4-7.8,10.4-10C155.9,116.8,160.3,115.7,165.1,115.6z M184.5,166
				c0-4.1-0.2-8.2-0.5-12.2c-0.3-4-0.8-7.9-1.6-11.5c-0.8-3.6-1.9-6.8-3.3-9.6c-1.4-2.8-3.3-5-5.7-6.6c-2.3-1.6-5.2-2.4-8.6-2.3
				c-3.5,0-6.6,1.2-9.4,3.6c-2.8,2.3-5.1,5.5-7,9.5c-1.9,4-3.4,8.5-4.4,13.5c-1,5-1.5,10.2-1.5,15.4c0.1,8.5,0.8,15.6,2.1,21.5
				c1.3,5.9,3.5,10.3,6.5,13.3c3,3,7.1,4.5,12.4,4.4c5.4-0.1,9.7-1.7,12.7-5c3.1-3.2,5.3-7.8,6.5-13.7
				C184,180.4,184.6,173.7,184.5,166z"/>
			<path class="st1" d="M228.7,219.1l4.2-116l14.7,1.8l-5.7,115.7L228.7,219.1z M286,218.5l1.6-65.1c0.1-1.8,0-3.8-0.1-6
				c-0.1-2.2-0.5-4.3-1.2-6.4c-0.7-2.1-1.7-3.7-3.1-5.1c-1.4-1.3-3.3-2-5.7-2c-2.7,0-5.4,1.3-8.2,3.7c-2.8,2.4-5.2,5.6-7.1,9.6
				c-1.9,3.9-2.9,8.2-2.8,12.7l-2.4,62.2l-10.3-1.1l3.5-70c1.1-4.6,2.8-9.1,5.3-13.6c2.5-4.5,5.6-8.3,9.4-11.3
				c3.8-3,8.3-4.5,13.5-4.6c4.4,0.2,8,1.6,10.9,4.2c2.9,2.6,5.2,5.9,6.8,9.8c1.7,4,2.8,8.1,3.5,12.4c0.7,4.3,1,8.2,1.1,11.7
				c0,2.1,0,4.2,0,6.3c0,0.7,0,1.3,0,2c-0.4,10.9-0.6,21.9-0.6,33c0,5.5,0,10.9-0.1,16.4L286,218.5z M260.9,113.2
				c6.6-4.6,13.4-6.9,20.4-6.9c5.6-0.1,10.9,1.3,15.9,4c5,2.8,9.1,7,12.3,12.7c3.9-4.2,8.2-7.5,13-9.7c4.8-2.2,9.6-3.4,14.5-3.4
				c5.8-0.1,10.7,1.1,14.8,3.4c4.1,2.3,7.4,5.5,10.1,9.6c2.7,4.1,4.8,8.8,6.3,14.1c1.5,5.3,2.6,11,3.2,17c0.6,6,0.9,12.1,0.9,18.3
				c0,6.2-0.2,12.3-0.5,18.1c-0.3,5.9-0.6,11.3-0.9,16.3c-0.5,5.5-0.8,10.2-0.9,14l-6.2-0.2c0.1-6.7,0.2-13.5,0.4-20.3
				c0.1-6.9,0.2-13.8,0.3-20.7c0.1-6.9,0.1-13.8,0.1-20.7c0-4.4-0.6-9-1.5-13.7c-1-4.7-2.6-9.1-4.7-13.1c-2.2-4-5.1-7.2-8.7-9.7
				c-3.6-2.5-8.1-3.8-13.3-4c-5.4,0.1-10.2,1.3-14.4,3.9c-4.2,2.5-7.8,5.8-10.7,10c-2.9,4.1-5.2,8.6-6.8,13.4
				c-0.8-4.6-2.2-9.1-4.3-13.5c-2.1-4.4-4.9-8.1-8.4-11c-3.5-2.9-7.9-4.5-13.1-4.6c-6.1,0.1-11.5,1.9-16.2,5.5
				c-4.7,3.6-8.5,8-11.3,13.3l1.5-30.1l8.8,1L260.9,113.2z M342.5,219.9l0.6-58.2c0-0.7,0-1.5,0-2.4c0.1-2.2,0.1-4.5,0-7
				c-0.1-2.5-0.4-4.9-1-7.1c-0.6-2.2-1.6-4.1-3-5.5c-1.4-1.4-3.5-2.2-6.1-2.1c-3.3,0-6.7,1.8-10.1,5.4c-3.4,3.6-5.8,8-7.2,13.3
				l-1.4,59.5l-9.8,0.9c0.2-16,0.4-32,0.6-48.1c0.2-7,1.1-13.1,2.5-18.3c1.4-5.2,3.3-9.5,5.5-13.1c2.5-4.1,5.7-7.4,9.6-10
				c3.9-2.6,8.3-3.9,13.1-3.8c4.5,0.1,8.3,1.3,11.4,3.5c3.1,2.3,5.5,5.2,7.3,8.8c1.8,3.6,3,7.5,3.8,11.6c0.7,4.1,1.1,8,1.2,11.8
				c0.1,6.9,0.1,13.8,0,20.7c-0.1,6.9-0.2,13.8-0.3,20.7c-0.2,6.7-0.3,13.3-0.4,20L342.5,219.9z"/>
			<path class="st1" d="M449.8,216.8l-2.9-160.2l15.5,0.5l-3.8,161.5L449.8,216.8z M549.7,214.1l-16.9-1.9L478.9,99.8l2.5,123.7
				l-16.7-3.5l3.5-142.4L549.7,203L549.7,214.1z M532.2,63.9l17.2-1.6l0.3,129.2l-81.3-125l0.2-9l9.4,0.2l0,0.1l5.4,0.3l49,90.2
				L532.2,63.9z M563.8,60.9l0,154.8l-7.9-0.9l-0.2-153.1L563.8,60.9z"/>
			<path class="st1" d="M632.5,218.7c-8.5,0.1-15.9-1.2-22.2-4c-6.3-2.7-11.4-6.7-15.5-11.9c-4.1-5.2-7.1-11.3-9.1-18.5
				c-2-7.2-3.1-15.1-3.2-23.9c-0.2-20.2,4-35.4,12.5-45.7c8.5-10.3,20.9-15.5,37.1-15.6c9-0.1,16.9,1.3,23.7,4.3
				c6.7,2.9,12.3,7.1,16.7,12.5c4.4,5.4,7.8,11.8,10,19.3c2.2,7.4,3.4,15.6,3.5,24.4c0.1,12.1-1.9,22.5-6.1,31.3
				c-4.2,8.8-10.3,15.6-18.3,20.4C653.6,216.1,643.9,218.6,632.5,218.7z M608.4,121.8c-3,4.6-5.3,10.3-6.9,17
				c-1.6,6.8-2.4,14.6-2.3,23.5c0.1,6.7,0.9,13.2,2.5,19.5c1.6,6.3,4,11.8,7.2,16.5c2.9,4.4,6.3,7.8,10.4,10.3
				c4.1,2.5,8.8,3.7,14.2,3.7c0.3,0,0.5,0,0.7,0c0.1,0,0.3,0,0.4,0c-0.1,0-0.1,0-0.2,0c-0.1,0-0.1,0-0.2,0c-0.1,0-0.1,0-0.2,0
				l-0.1,0c0.1,0,0.1,0,0.2,0c1.7,0.1,3.9,0,6.4-0.2c2.6-0.2,5.4-0.8,8.5-1.8c3.1-1,6.1-2.6,9.1-4.9c3-2.2,5.8-5.3,8.2-9.3
				c2.5-4,4.5-9,6-15.3c1.5-6.2,2.2-13.9,2.1-22.9c-0.1-9-1-16.5-2.8-22.5c-1.8-6-4.1-11-6.9-14.8c-2.8-3.8-5.7-6.8-8.9-8.8
				c-3.1-2-6.1-3.5-9-4.3c-2.9-0.8-5.3-1.3-7.3-1.4c-2-0.1-3.2-0.1-3.7,0c-5.6,0.1-10.8,1.4-15.5,4
				C615.7,112.7,611.7,116.6,608.4,121.8z M636,110.9l0.1,0c0.1,0,0.9,0,2.5,0c1.6,0,3.6,0.4,6.1,1c2.5,0.6,5.1,1.9,8,3.7
				c2.8,1.8,5.5,4.4,8,7.8c2.5,3.4,4.6,7.9,6.2,13.6c1.6,5.6,2.5,12.6,2.6,21c0.1,8.2-0.5,15.2-1.8,20.8c-1.3,5.7-3,10.3-5.3,14
				c-2.2,3.7-4.7,6.5-7.3,8.6c-2.6,2-5.3,3.5-8,4.4c-2.7,0.9-5.2,1.4-7.5,1.6c-2.3,0.2-4.2,0.3-5.7,0.2c-0.1,0-0.3,0-0.4,0
				c0.1,0,0.1,0,0.2,0c0.1,0,0.1,0,0.2,0c0.1,0,0.1,0,0.2,0c0,0,0.1,0,0.1,0c0,0,0,0-0.1,0c-0.1,0-0.2,0-0.3,0c-0.1,0-0.3,0-0.5,0
				c-4.4,0-8.4-1-11.8-3.1c-3.4-2.1-6.4-5.1-8.8-8.8c-2.9-4.4-5.2-9.5-6.7-15.3c-1.5-5.8-2.3-11.9-2.3-18.2
				c-0.1-8.4,0.6-15.7,2.1-22c1.5-6.3,3.6-11.6,6.4-15.9c2.9-4.4,6.4-7.8,10.4-10C626.8,112.1,631.2,110.9,636,110.9z M655.4,161.2
				c0-4.1-0.2-8.2-0.5-12.2c-0.3-4-0.8-7.9-1.6-11.5c-0.8-3.6-1.9-6.8-3.3-9.6c-1.4-2.8-3.3-5-5.7-6.6c-2.4-1.6-5.2-2.4-8.6-2.3
				c-3.5,0-6.6,1.2-9.4,3.6c-2.8,2.3-5.1,5.5-7,9.5c-1.9,4-3.4,8.5-4.4,13.5c-1,5-1.5,10.2-1.5,15.4c0.1,8.5,0.8,15.6,2.1,21.5
				c1.3,5.9,3.5,10.3,6.5,13.3c3,3,7.1,4.5,12.4,4.4c5.4-0.1,9.7-1.7,12.7-5c3.1-3.2,5.3-7.8,6.5-13.7
				C654.9,175.7,655.5,168.9,655.4,161.2z"/>
			<path class="st1" d="M699.6,214.3l4.2-116l14.7,1.8l-5.7,115.7L699.6,214.3z M756.8,213.7l1.6-65.1c0.1-1.8,0-3.8-0.1-6
				c-0.1-2.2-0.5-4.3-1.2-6.4c-0.7-2.1-1.7-3.7-3.1-5.1c-1.4-1.3-3.3-2-5.7-2c-2.7,0-5.4,1.3-8.2,3.7c-2.8,2.4-5.2,5.6-7.1,9.6
				c-1.9,3.9-2.9,8.2-2.8,12.7l-2.4,62.2l-10.3-1.1l3.5-70c1.1-4.6,2.8-9.1,5.3-13.6c2.5-4.5,5.6-8.3,9.4-11.3
				c3.8-3,8.3-4.5,13.5-4.6c4.4,0.2,8,1.6,10.9,4.2c2.9,2.6,5.2,5.9,6.8,9.8c1.7,4,2.8,8.1,3.5,12.4c0.7,4.3,1,8.2,1.1,11.7
				c0,2.1,0,4.2,0,6.3c0,0.7,0,1.3,0,2c-0.4,10.9-0.6,21.9-0.6,33c0,5.5,0,10.9-0.1,16.4L756.8,213.7z M731.8,108.4
				c6.6-4.6,13.4-6.9,20.4-6.9c5.6-0.1,10.9,1.3,15.9,4c5,2.8,9.1,7,12.3,12.7c3.9-4.2,8.2-7.5,13-9.7c4.8-2.2,9.6-3.4,14.5-3.4
				c5.8-0.1,10.7,1.1,14.8,3.4s7.4,5.5,10.1,9.6c2.7,4.1,4.8,8.8,6.3,14.1c1.5,5.3,2.6,11,3.2,17c0.6,6,0.9,12.1,0.9,18.3
				c0,6.2-0.2,12.3-0.5,18.1c-0.3,5.9-0.6,11.3-0.9,16.3c-0.5,5.5-0.8,10.2-0.9,14l-6.2-0.2c0.1-6.7,0.2-13.5,0.4-20.3
				c0.1-6.9,0.2-13.8,0.3-20.7c0.1-6.9,0.1-13.8,0.1-20.7c0-4.4-0.6-9-1.5-13.7c-1-4.7-2.6-9.1-4.7-13.1c-2.2-4-5.1-7.2-8.7-9.7
				c-3.6-2.5-8.1-3.8-13.3-4c-5.4,0.1-10.2,1.3-14.4,3.9c-4.2,2.5-7.8,5.8-10.7,10c-2.9,4.1-5.2,8.6-6.8,13.4
				c-0.8-4.6-2.2-9.1-4.3-13.5c-2.1-4.4-4.9-8.1-8.4-11c-3.5-2.9-7.9-4.5-13.1-4.6c-6.1,0.1-11.5,1.9-16.2,5.5
				c-4.7,3.6-8.5,8-11.3,13.3l1.5-30.1l8.8,1L731.8,108.4z M813.4,215.2l0.6-58.2c0-0.7,0-1.5,0-2.4c0.1-2.2,0.1-4.5,0-7
				c-0.1-2.5-0.4-4.9-1-7.1s-1.6-4.1-3-5.5c-1.4-1.4-3.5-2.2-6.1-2.1c-3.3,0-6.7,1.8-10.1,5.4c-3.4,3.6-5.8,8-7.2,13.3l-1.4,59.5
				l-9.8,0.9c0.2-16,0.4-32,0.6-48.1c0.2-7,1.1-13.1,2.5-18.3c1.4-5.2,3.3-9.5,5.5-13.1c2.5-4.1,5.7-7.4,9.6-10
				c3.9-2.6,8.3-3.9,13.1-3.8c4.5,0.1,8.3,1.3,11.4,3.5c3.1,2.3,5.5,5.2,7.3,8.8c1.8,3.6,3,7.5,3.8,11.6c0.7,4.1,1.1,8,1.2,11.8
				c0.1,6.9,0.1,13.8,0,20.7c-0.1,6.9-0.2,13.8-0.3,20.7c-0.2,6.7-0.3,13.3-0.4,20L813.4,215.2z"/>
		</g>
		<g class="st2">
			<ellipse class="st3" cx="557" cy="255" rx="537.5" ry="9.5"/>
		</g>
		<path class="st4" d="M953.9,36c0-15.7-13.5-28.4-30-28.4S894,20.3,894,36s13.5,28.4,30,28.4S953.9,51.6,953.9,36z"/>
		<path class="st5" d="M934,36c0-5.6-4.9-10.2-10.8-10.2s-10.8,4.5-10.8,10.2s4.9,10.2,10.8,10.2S934,41.6,934,36z"/>
		<path class="st4" d="M1034.5,38.7c0-15.7,13.5-28.4,30-28.4s30,12.7,30,28.4s-13.5,28.4-30,28.4S1034.5,54.4,1034.5,38.7z"/>
		<path class="st5" d="M1052.9,38.7c0-6,5.2-10.9,11.5-10.9s11.6,4.9,11.6,10.9s-5.2,10.9-11.5,10.9S1052.9,44.7,1052.9,38.7z"/>
		<g class="st6">
			<path class="st5" d="M1094.7,38.7c0,7.7-3.3,15-9,20.2c2.8-4.4,4.3-9.4,4.3-14.6c0-15.7-13.5-28.4-30-28.4
				c-7.8,0-15.3,2.9-21,8.2c5.7-8.6,15.3-13.8,25.7-13.7C1081.2,10.4,1094.7,23.1,1094.7,38.7z"/>
		</g>
		<g class="st6">
			<path class="st5" d="M894,36c0,7.7,3.3,15,9,20.2c-2.8-4.4-4.3-9.4-4.3-14.6c0-15.7,13.5-28.4,30-28.4c7.8,0,15.3,2.9,21,8.2
				C944,12.7,934.4,7.5,924,7.6C907.5,7.6,894,20.3,894,36z"/>
		</g>
		<g class="st2">
			<path class="st3" d="M1094.3,41.5c-0.8,15-13.9,26.9-29.9,26.9c-16.6,0.1-30-12.7-30-28.4c0.1-10,5.6-19.1,14.2-24.1
				c0.9,8.9,7.8,18.1,18.4,23.5C1076.5,44.2,1086.7,44.7,1094.3,41.5z"/>
		</g>
		<g class="st2">
			<path class="st3" d="M894,38.1c0.8,15,13.9,26.9,29.9,26.9c16.6,0.1,30-12.7,30-28.4c-0.1-10-5.5-19.2-14.2-24.1
				c-0.9,8.9-7.8,18.1-18.4,23.5C911.8,40.7,901.6,41.3,894,38.1z"/>
		</g>
		<path class="st7" d="M1064.3,69.9c-8.8,0.1-17.2-3.4-23.5-9.6c-5.8-5.7-9.1-13.4-9.1-21.5c0-17.2,14.7-31.1,32.7-31.1
			s32.7,14,32.7,31.1s-14.7,31.1-32.7,31.1H1064.3z M1064.4,13.1c-15,0-27.2,11.5-27.2,25.6c0,6.6,2.7,13,7.4,17.6
			c5.2,5.2,12.3,8.1,19.6,8h0.1c15,0,27.2-11.5,27.2-25.6S1079.4,13.1,1064.4,13.1z"/>
		<path class="st7" d="M924.2,67.1h-0.3c-18,0-32.7-14-32.7-31.1S905.9,4.8,924,4.8s32.7,14,32.7,31.1c0,8.2-3.3,16-9.1,21.7
			C941.4,63.8,933,67.2,924.2,67.1z M924,10.4c-15,0-27.2,11.5-27.2,25.6S909,61.6,924,61.6c7.4,0.1,14.5-2.7,19.7-7.9
			c4.8-4.7,7.5-11,7.5-17.7C951.2,21.9,939,10.4,924,10.4z"/>
		<path class="st7" d="M1064.3,69.9c-8.8,0.1-17.2-3.4-23.5-9.6c-5.8-5.7-9.1-13.4-9.1-21.5c0-17.2,14.7-31.1,32.7-31.1
			s32.7,14,32.7,31.1s-14.7,31.1-32.7,31.1H1064.3z M1064.4,13.1c-15,0-27.2,11.5-27.2,25.6c0,6.6,2.7,13,7.4,17.6
			c5.2,5.2,12.3,8.1,19.6,8h0.1c15,0,27.2-11.5,27.2-25.6S1079.4,13.1,1064.4,13.1z"/>
		<path class="st7" d="M1064.3,69.9c-8.8,0.1-17.2-3.4-23.5-9.6c-5.8-5.7-9.1-13.4-9.1-21.5c0-17.2,14.7-31.1,32.7-31.1
			s32.7,14,32.7,31.1s-14.7,31.1-32.7,31.1H1064.3z M1064.4,13.1c-15,0-27.2,11.5-27.2,25.6c0,6.6,2.7,13,7.4,17.6
			c5.2,5.2,12.3,8.1,19.6,8h0.1c15,0,27.2-11.5,27.2-25.6S1079.4,13.1,1064.4,13.1z"/>
		<path class="st5" d="M888.9,118.5c0-53.2,46.5-96.3,103.9-96.3s103.9,43.1,103.9,96.3s-46.5,96.3-103.9,96.3
			S888.9,171.6,888.9,118.5z"/>
		<g class="st2">
			<path class="st3" d="M992.3,183.2c-51.9,0-94.9-35.3-102.6-81.4c-0.8,4.9-1.2,9.9-1.3,14.9c0,53.2,46.5,96.3,103.9,96.3
				s103.9-43.1,103.9-96.3c0-5-0.4-10-1.2-14.9C1087.2,147.9,1044.2,183.2,992.3,183.2z"/>
		</g>
		<path class="st7" d="M992.8,217.5c-58.8,0-106.6-44.4-106.6-99s47.8-99,106.6-99c58.8,0,106.7,44.4,106.7,99.1
			S1051.6,217.5,992.8,217.5z M992.8,24.9c-55.8,0-101.1,42-101.1,93.5S937,212,992.8,212s101.1-42,101.1-93.5
			S1048.5,24.9,992.8,24.9z"/>
		<path class="st1" d="M1009.4,78.4c3.5-10.4,18.4-14.6,33.3-9.1s24.3,18.4,20.9,29s-18.4,14.6-33.3,9.1S1006.1,88.8,1009.4,78.4z"
			/>
		<path class="st1" d="M974.2,76.7c-3.5-10.4-18.4-14.6-33.3-9.1S916.6,86,920,96.6s18.4,14.6,33.3,9.1
			C968.4,100.1,977.7,87.2,974.2,76.7z"/>
		<path class="st7" d="M992.8,111.8c6.3,0,15.7-9,12.8-14.3c-3-5.5-22.2-6-25.4,0C976.5,104.3,986.4,111.8,992.8,111.8z"/>
		<path class="st7" d="M992.8,114.5c-5.2,0-11.8-3.8-14.6-8.6c-1.9-2.9-2.1-6.7-0.4-9.8c2.9-5.3,12-5.7,14.8-5.7l0,0
			c6,0,13.1,1.5,15.4,5.7c1.4,2.6,1.1,5.8-0.9,9.1C1004.4,109.8,998.3,114.5,992.8,114.5z M992.6,95.9L992.6,95.9
			c-5.5,0-9.2,1.5-9.9,2.8c-0.3,0.5-1.1,2,0.3,4.3c2,3.4,6.8,5.9,9.8,5.9s7.6-3.1,9.7-6.6c0.4-0.7,1.4-2.5,0.8-3.6
			S998.5,95.9,992.6,95.9L992.6,95.9z"/>
		<ellipse class="st5" cx="992.8" cy="97.6" rx="7.4" ry="2.8"/>
		<path class="st7" d="M992.9,184.4c-42.2,0-81.7-36.2-65-62.6c1.4-2.2,3.1-4.2,5-6c1.4-1.3,3.1-2.3,4.8-3.1
			c15.2-6.4,34.8,12.4,54.1,13.5c18.4,0,40.4-18.3,58.4-11.5c1.4,0.5,2.8,1.2,4.1,2.1c1.3,0.8,2.5,1.8,3.7,2.8
			C1081.8,141.2,1035.1,184.4,992.9,184.4z"/>
		<path class="st5" d="M1052.1,114.7c-11.6,11.8-33.8,19.8-59.2,19.8c-24.7,0-46.3-7.5-58.2-18.7c1.4-1.3,3.1-2.3,4.8-3.1
			c15.2-6.4,34.8,12.4,54.1,13.5C1012.1,126.2,1034.1,107.9,1052.1,114.7z"/>
		<g class="st2">
			<path class="st3" d="M1052.1,114.7c-1.6,1.7-3.4,3.2-5.3,4.6c-17.3-3.5-37.6,12.5-54.9,12.5c-19.3-1.1-38.9-19.9-54.1-13.5h-0.1
				c-1-0.8-2-1.7-3-2.6c1.4-1.3,3.1-2.3,4.8-3.1c15.2-6.4,34.8,12.3,54.1,13.5C1012.1,126.2,1034.1,107.9,1052.1,114.7z"/>
		</g>
		<path class="st7" d="M992.8,187.1c-14.1-0.1-27.9-3.8-40.3-10.5c-12-6.5-21.5-15.4-26.7-25c-6-10.9-6.1-22-0.2-31.3
			c11.6-18.4,27.4-11.3,42.7-4.5c7.8,3.5,15.9,7.2,23.7,7.6c7.2,0,15-3,23.3-6.2c14.6-5.6,31.2-12,44.7,0.3c7.3,6.7,9.2,15.9,5.3,26
			C1057.2,164.1,1024.6,187.1,992.8,187.1z M944.5,114.1c-5.5,0-10.1,2.5-14.3,9.1c-6.1,9.6-3.1,19.2,0.4,25.7
			c10.3,18.6,37,32.7,62.2,32.7c13.5,0,28.3-4.6,41.7-12.9c12.4-7.7,21.9-17.9,25.6-27.2c3.1-8,1.8-14.7-3.8-19.9
			c-11-10-24.6-4.8-39,0.8c-8.4,3.2-17.2,6.6-25.4,6.6h-0.2c-8.8-0.5-17.5-4.4-25.8-8.1C957.4,117,950.5,114.1,944.5,114.1
			L944.5,114.1z"/>
		<path class="st5" d="M978.1,26.8c0,0,0-7.2,8.3-15.9c6.8-7.3,21.9-15.5,14.7,3.9c0,0,14.4-16.1,22-8.8c7.3,7-7.9,19.9-16.1,23.3"
			/>
		<g class="st2">
			<path class="st3" d="M1023.2,5.9c0,0-28.4,28.1-20.5,8.1c0,0,2.1-5.9,0-9.7c0,0-0.3,10-5.4,15.6c-5.9,6.4-16.8,7.8-16.2-1.8
				c0,0-9.3,14.8,6.8,18.7C1001.6,40.1,1034.5,9.7,1023.2,5.9z"/>
		</g>
		<path class="st7" d="M977.2,26.8c-0.3-0.6-0.5-1.2-0.6-1.8c-0.1-0.6-0.2-1.2-0.2-1.8c0-1.1,0.2-2.3,0.6-3.4
			c0.7-2.1,1.8-4.1,3.1-5.9c0.7-0.9,1.3-1.7,2.1-2.5s1.4-1.6,2.1-2.4c1.5-1.6,3.1-3,4.8-4.3c1.8-1.4,3.6-2.5,5.7-3.5
			c1.1-0.5,2.3-0.9,3.5-1.1c0.7-0.1,1.5-0.2,2.3-0.1c0.2,0,0.5,0.1,0.7,0.1c0.2,0,0.5,0.1,0.7,0.2c0.2,0.1,0.5,0.2,0.7,0.3
			c0.2,0.1,0.5,0.3,0.7,0.4c0.4,0.3,0.8,0.7,1.2,1.1c0.1,0.2,0.3,0.4,0.4,0.6c0.1,0.2,0.2,0.4,0.3,0.6c0.3,0.7,0.5,1.5,0.6,2.3
			c0.1,1.3,0,2.5-0.2,3.7c-0.4,2.1-1,4.3-1.8,6.3l-4.6-2.8c0.9-1,1.8-1.9,2.7-2.7s1.9-1.7,2.9-2.5c2-1.7,4.2-3.1,6.5-4.4
			c1.2-0.7,2.6-1.2,3.9-1.5c1.5-0.4,3.1-0.6,4.7-0.4c1.7,0.2,3.3,0.9,4.7,2c0.7,0.5,1.2,1.1,1.8,1.8c0.3,0.4,0.5,0.7,0.7,1.1
			l0.3,0.6c0.1,0.2,0.2,0.4,0.2,0.6c0.5,1.6,0.6,3.4,0.2,5.1c-0.4,1.4-0.9,2.8-1.7,4.1c-1.4,2.3-3.1,4.4-5,6.2
			c-1.8,1.8-3.9,3.4-5.8,5c-1,0.8-2.1,1.5-3.3,2c-0.6,0.2-1.3,0.4-2,0.4c-0.8,0-1.5-0.1-2.3-0.3c-0.6-0.2-1-1-0.7-1.6v0v0
			c0.5-1.2,1.2-2.3,2.2-3.2c0.8-0.8,1.8-1.4,2.8-2c1-0.6,1.9-1.2,2.8-2c0.9-0.7,1.7-1.5,2.5-2.3c1.6-1.5,2.9-3.2,4.1-5
			c0.5-0.8,0.9-1.7,1.1-2.6c0.2-0.7,0.2-1.4,0-2.1c0-0.1-0.1-0.1-0.1-0.2l-0.1-0.2c-0.1-0.1-0.2-0.3-0.3-0.4
			c-0.2-0.3-0.5-0.6-0.8-0.8c-0.5-0.5-1.2-0.7-1.9-0.8c-1.9-0.1-3.7,0.4-5.3,1.4c-2,1-3.8,2.3-5.5,3.7c-0.9,0.7-1.8,1.5-2.6,2.3
			s-1.7,1.6-2.4,2.4l0,0c-1,1.1-2.8,1.2-3.9,0.2c-0.8-0.8-1.1-2-0.7-3c0.7-1.7,1.2-3.5,1.5-5.3c0.1-0.7,0.2-1.5,0.2-2.3
			c0-0.2-0.1-0.4-0.1-0.6l0,0l0,0c0,0,0,0,0,0.1s0,0-0.1,0c-0.3,0-0.5,0-0.8,0.1c-0.8,0.2-1.5,0.4-2.2,0.7c-1.6,0.8-3.2,1.7-4.6,2.8
			c-1.5,1.1-2.9,2.4-4.2,3.7c-1.3,1.4-2.5,2.8-3.4,4.4c-1,1.6-1.8,3.2-2.7,4.7c-0.9,1.7-1.9,3.3-3.1,4.7l-0.2,0.2
			c-0.4,0.4-1,0.5-1.4,0.1c0,0,0,0,0,0C977.3,27,977.2,26.9,977.2,26.8z"/>
		<path class="st8" d="M1069.5,109.4c0-2.3,3.4-4.3,7.6-4.3s7.6,2,7.6,4.3s-3.4,4.3-7.6,4.3S1069.5,111.9,1069.5,109.4z"/>
		<path class="st8" d="M899.9,109.4c0-2.3,3.4-4.3,7.6-4.3s7.6,2,7.6,4.3s-3.4,4.3-7.6,4.3S899.9,111.9,899.9,109.4z"/>
		<path class="st5" d="M1042.5,89.2c-1.4-1.2-2.9-2.1-4.6-2.9c-1.9-0.7-3.9-0.9-5.8-0.4c-0.2,0-0.4,0.1-0.6,0.1l-0.6,0.2
			c-0.7,0.3-1.4,0.6-2,1.1c-0.6,0.5-1.2,1.2-1.6,1.9c-0.2,0.4-0.4,0.8-0.7,1.2s-0.4,0.9-0.5,1.3l-0.1,0.1c-0.2,0.4-0.6,0.6-1,0.4
			c-0.2-0.1-0.4-0.3-0.5-0.6c-0.1-0.6-0.2-1.2-0.2-1.8c0-0.6,0.1-1.2,0.2-1.8c0.6-2.5,2.2-4.6,4.5-5.8l0.9-0.4
			c0.3-0.1,0.6-0.2,0.9-0.3c0.6-0.2,1.2-0.3,1.8-0.4l0.4-0.1h0.5c0.3,0,0.6,0,0.9,0c0.3,0,0.6,0.1,1,0.1c0.3,0,0.6,0.1,0.9,0.2
			c1.2,0.3,2.4,0.8,3.4,1.5c1,0.7,1.8,1.5,2.5,2.5c0.7,0.9,1.2,2,1.4,3.2c0.1,0.4-0.2,0.8-0.6,0.9c0,0,0,0,0,0c-0.2,0-0.5,0-0.7-0.2
			L1042.5,89.2z"/>
		<path class="st5" d="M940,88.5c0.3-1.1,0.7-2.2,1.4-3.2c0.7-1,1.6-1.8,2.6-2.5c1-0.7,2.2-1.2,3.4-1.5c0.3-0.1,0.6-0.1,0.9-0.2
			c0.3,0,0.6-0.1,0.9-0.1s0.6,0,0.9,0h0.5l0.5,0.1c0.6,0.1,1.2,0.2,1.8,0.4c0.3,0.1,0.6,0.2,0.9,0.3l0.9,0.4
			c1.1,0.6,2.1,1.4,2.9,2.4c0.8,1,1.3,2.1,1.5,3.3c0.1,0.6,0.2,1.2,0.2,1.8c0,0.6,0,1.2-0.2,1.8c-0.1,0.4-0.5,0.7-0.9,0.6
			c-0.2-0.1-0.5-0.2-0.5-0.5v-0.1c-0.2-0.4-0.3-0.9-0.5-1.3c-0.2-0.4-0.4-0.8-0.7-1.2c-0.4-0.7-1-1.3-1.6-1.9
			c-0.6-0.5-1.3-0.9-2-1.1l-0.5-0.2c-0.2-0.1-0.4-0.1-0.6-0.1c-1.9-0.4-4-0.3-5.8,0.4c-1.7,0.7-3.2,1.7-4.6,2.9l-0.1,0.1
			c-0.3,0.3-0.8,0.2-1.1-0.1c0,0,0,0,0,0C940.1,88.9,940,88.7,940,88.5z"/>
		<path class="st9" d="M924.6,221.7c-0.5-16.1,30.9-29,69.1-29c38.2,0,69.1,12.9,69.1,29c-0.1,21.4-30.8,29-69.1,29
			S925.3,243.3,924.6,221.7z"/>
		<g class="st2">
			<path class="st3" d="M1060.9,215.9c-4.7,17.5-33.4,23.8-68.4,23.8c-33.5,0-61-5.7-67.6-21.8c-0.4,1.4-0.7,2.8-0.6,4.2
				c0.8,21.6,31,29,69.1,29s69-7.6,69.1-29C1062.5,219.9,1061.9,217.8,1060.9,215.9z"/>
		</g>
		<path class="st9" d="M923.7,210.3c-0.5-16.1,30.8-29,69.1-29c38.2,0,69.1,12.9,69.1,29c-0.1,21.4-30.9,29-69.1,29
			S924.5,231.9,923.7,210.3z"/>
		<path class="st7" d="M993.7,253.4c-21,0-37.6-2.2-49.5-6.6c-14.4-5.3-22-13.7-22.4-25.1l0,0c-0.1-4.6,1.8-9,5.7-13.1
			c11.1-11.4,37-18.8,66.1-18.8c18.8,0,36.5,3.1,49.9,8.7c14.2,5.9,22,14.1,22,23.1C1065.4,242.4,1040.6,253.4,993.7,253.4z
			 M927.3,221.6c0.8,21.8,36.5,26.3,66.3,26.3c24.7,0,66.2-3.4,66.3-26.2c0-6.5-6.8-13-18.6-18c-12.7-5.3-29.7-8.3-47.8-8.3
			c-27.3,0-52.2,6.9-62.2,17.1C928.7,215.5,927.3,218.5,927.3,221.6L927.3,221.6z"/>
		<path class="st10" d="M1007.5,214.8c0,10-19.3,18.2-43.2,18.2s-43.2-8.1-43.2-18.2c0-2.6,1.2-5,3.6-7.3
			c6.6-6.4,21.9-10.9,39.6-10.9c22.5,0,41,7.2,43,16.5C1007.5,213.6,1007.5,214.2,1007.5,214.8z"/>
		<g class="st6">
			<path class="st5" d="M921,213.3c34.9,25.5,67.6,8.1,76.9,2.1v-0.1c0-0.2,0-0.4,0-0.7c-54.1,21.4-72.6-7-72.6-7
				c-1.3,1-2.4,2.3-3.3,3.7C921.5,211.9,921.2,212.6,921,213.3z"/>
		</g>
		<path class="st7" d="M964.3,235.7c-26.2,0-46-9-46-20.9c0-3.3,1.5-6.5,4.5-9.3c7.3-7.1,23.6-11.6,41.5-11.6
			c24.1,0,43.3,7.8,45.7,18.6c0.2,0.7,0.3,1.5,0.3,2.3c0,6-5.1,11.5-14.3,15.4C987.5,233.7,976.3,235.7,964.3,235.7z M964.3,199.4
			c-16.3,0-31.4,4.1-37.7,10.1c-1.3,1.2-2.8,3-2.8,5.3c0,7.3,16.6,15.4,40.5,15.4s40.5-8.1,40.5-15.4c0-0.3,0-0.7-0.1-1
			c0,0,0-0.1,0-0.1C1003.2,206.8,987.3,199.4,964.3,199.4z"/>
		<path class="st7" d="M967.7,226.4c-24,0-43-7.7-45.3-18.4c-0.2-0.8,0.1-1.6,0.7-2.2c7.3-7,23.5-11.6,41.3-11.6
			c24,0.1,43,7.8,45.3,18.4c0.2,0.8-0.1,1.6-0.7,2.2C1001.8,221.8,985.5,226.4,967.7,226.4z M927.5,208.3c3,6.6,18.5,13.4,40.3,13.4
			c15.5,0,30-3.7,36.9-9.3c-3-6.6-18.5-13.3-40.3-13.4C948.8,199,934.3,202.7,927.5,208.3z"/>
		<path class="st10" d="M1063.5,214.8c0,9-17.3,16.2-38.6,16.2s-38.5-7.2-38.6-16.1v-0.1c0-0.2,0-0.4,0-0.7c0-0.2,0-0.4,0.1-0.6
			c1.5-8.4,18.2-15,38.5-15c14.7,0,27.5,3.5,34,8.6c1.3,1,2.4,2.3,3.3,3.7c0.4,0.6,0.7,1.3,0.9,2
			C1063.3,213.4,1063.5,214.1,1063.5,214.8z"/>
		<g class="st6">
			<path class="st5" d="M1063.4,212.2c-34.9,25.5-67.6,8.1-76.9,2.1v-0.1c0-0.2,0-0.4,0-0.7c54.1,21.4,72.6-7,72.6-7
				c1.3,1,2.4,2.3,3.3,3.7C1062.8,210.8,1063.2,211.5,1063.4,212.2z"/>
		</g>
		<path class="st7" d="M1024.9,233.7c-23.6,0-41.3-8.2-41.3-19c0-0.6,0.1-1.1,0.2-1.7c1.8-10,19.2-17.3,41.2-17.3
			c14.9,0,28.6,3.5,35.7,9.1v0.1c3.6,3,5.5,6.3,5.5,9.8C1066.2,225.6,1048.4,233.7,1024.9,233.7z M1024.9,201.3
			c-20,0-34.7,6.6-35.8,12.7c-0.1,0.2-0.1,0.5-0.1,0.8c0,6.4,14.7,13.5,35.8,13.5c21.1,0,35.8-7.1,35.8-13.5c0-1.8-1.2-3.6-3.5-5.5
			C1051.1,204.4,1038.4,201.3,1024.9,201.3L1024.9,201.3z"/>
		<path class="st7" d="M1020.4,224.5c-14.8,0-28.4-3.5-35.5-9.1c-0.7-0.5-1-1.4-0.9-2.3c1.8-9.8,19-16.9,40.9-16.9
			c14.8,0.1,28.4,3.5,35.5,9.1c0.7,0.5,1,1.4,0.9,2.3C1059.5,217.3,1042.3,224.5,1020.4,224.5z M989.2,212.6
			c6.6,4.4,18.4,7.1,31.2,7.1c19.4,0,33-5.8,35.7-11.6c-6.6-4.3-18.6-7.1-31.2-7.1C1005.5,200.9,991.9,206.7,989.2,212.6z"/>
		<path class="st11" d="M1058.3,207.2c-6.7,2.8-8.8-2.6-14-0.4s-4.4,11.3-13.9,12.8s-17.2-5.5-22.4-5.5s-7.7,9.1-17.4,9.1
			s-12-8.3-17-9s-8.4,8.5-17.8,5.1s-9.5-9.4-14.2-11.7s-9.8,6.6-17.5-2.3c-2.7-3.1-2.6-7.4-1.3-11.6c0.2-0.7,0.5-1.5,0.8-2.2
			c2-4.7,4.7-9.1,7.9-13.1l117.3,1.9c7.6,4.5,11.7,9.8,13.2,14.5c0.4,1.3,0.7,2.6,0.7,4C1062.8,202.9,1061.1,206.1,1058.3,207.2z"/>
		<g class="st6">
			<path class="st5" d="M1062,195c-63.2,29-118.2,10.3-139.2-1.2c0.2-0.7,0.5-1.5,0.8-2.2c2-4.7,4.7-9.1,7.9-13.1l117.3,1.9
				C1056.4,184.9,1060.4,190.2,1062,195z"/>
		</g>
		<g class="st2">
			<path class="st3" d="M1058.3,207.2c-6.7,2.8-8.8-2.6-14-0.4s-4.4,11.3-13.9,12.8s-17.2-5.5-22.4-5.5s-7.7,9.1-17.4,9.1
				s-12-8.3-17-9s-8.4,8.5-17.8,5.1s-9.5-9.4-14.2-11.7s-9.8,6.6-17.5-2.3c-3.2-3.7-2.5-8.9-0.5-13.8c0.9,1.5,1.3,4.5,2,5.6
				c1.5,2.4,3.8,4.2,6.5,5c4.6,1.3,9.7-0.3,14,1.6c3.7,1.7,6.1,5.6,10,6.8c3.4,1,6.9-0.3,10.4-1c5.3-1,10.8-0.4,15.8,1.6
				c3,1.3,6,3.1,9.3,2.9c3.6-0.3,6.5-3,9.8-4.3c9-3.5,19.7,4.1,28.7,0.4c2.7-1.1,4.9-3.1,7.3-4.7c3.9-2.5,8.4-3.9,13-4.1
				c3-0.1,6,0.3,8.8-0.6c1.3-0.4,2.5-1.1,3.6-1.9C1062.8,202.9,1061.1,206.1,1058.3,207.2z"/>
		</g>
		<path class="st7" d="M990.6,226c-7,0-10.8-3.6-13.6-6.3c-1.4-1.4-2.7-2.5-3.8-2.7c-0.8-0.1-2.2,0.9-3.6,1.9
			c-3.1,2.2-7.7,5.6-14.8,3.1c-4.5-1.6-8.4-4.5-11.1-8.5c-0.9-1.3-2-2.5-3.4-3.3c-0.6-0.3-1.7,0.1-3.3,0.7c-3.6,1.4-9,3.4-15.1-3.6
			c-9-10.3,5.7-28.5,7.3-30.5c0.5-0.6,1.3-1,2.2-1l117.3,1.9c0.5,0,0.9,0.1,1.3,0.4c10.1,5.9,15.8,14.3,15.3,22.3
			c-0.3,4.4-2.6,7.9-6.1,9.4c-3.2,1.4-6.8,1.4-10-0.1c-1.8-0.6-2.6-0.9-3.9-0.4c-1.1,0.5-1.9,1.8-3.1,3.8c-1.9,3.4-4.5,8-11.5,9.2
			c-6.7,1-12.3-1.5-16.8-3.5c-2.4-1-4.6-2-6-2c-1.1,0-2.4,1.3-4,2.7C1001.3,222.3,997.4,226,990.6,226z M973.2,211.5
			c0.3,0,0.6,0,0.8,0.1c2.9,0.4,4.9,2.3,6.9,4.2c2.6,2.5,5,4.8,9.8,4.8c4.5,0,7.1-2.5,9.6-4.9c2.2-2.1,4.5-4.3,7.8-4.3
			c2.6,0,5.2,1.1,8.2,2.5c4.1,1.8,8.7,3.8,13.7,3.1c4.3-0.7,5.8-3.4,7.6-6.4c1.3-2.3,2.8-5,5.7-6.2c3.4-1.4,5.9-0.5,8,0.3
			s3.4,1.2,6,0.1c1.6-0.7,2.6-2.4,2.7-4.7c0.3-4.5-2.7-11.2-11.9-16.8l-115.2-1.9c-3.9,5-11.3,17-6.6,22.3c3.6,4.1,5.8,3.3,9,2.1
			c2.2-0.8,4.9-1.8,7.7-0.5c2.1,1.2,4,2.9,5.3,4.9c2.1,3.1,5.1,5.4,8.6,6.7c4.3,1.6,6.8-0.2,9.6-2.3
			C968.4,213.1,970.5,211.5,973.2,211.5L973.2,211.5z"/>
		<path class="st12" d="M923.8,176.9c0-16.1,30.9-29,69.1-29c38.2,0,69.1,12.9,69.1,29s-30.8,29-69.1,29S923.8,192.9,923.8,176.9z"
			/>
		<path class="st7" d="M992.9,208.6c-18.9,0-36.6-3.1-50-8.7c-14.1-5.9-21.9-14.1-21.9-23.1s7.8-17.2,21.9-23.1
			c13.4-5.6,31.1-8.7,50-8.7s36.5,3.1,49.9,8.7c14.2,5.9,22,14.1,22,23.1s-7.8,17.1-21.9,23.1
			C1029.5,205.5,1011.8,208.6,992.9,208.6z M992.9,150.6c-36,0-66.3,12-66.3,26.2s30.4,26.2,66.3,26.2s66.3-12,66.3-26.2
			c0-6.5-6.8-13-18.6-18C1028,153.6,1011,150.6,992.9,150.6L992.9,150.6z"/>
		<path class="st13" d="M1049.4,167.5c0,0-12.6,16.7-31,27.1c-8.2,4.6-17.6,7.9-27.5,7.9c-10.3,0-19.5-3.5-27.3-8.3
			c-16.3-10.1-26.1-25.8-26.1-25.8L1049.4,167.5z"/>
		<g class="st2">
			<path class="st3" d="M1049.4,165.9c0,0-12.6,16.7-31,27.1c-18.2,2-36.6,1.8-54.8-0.4c-16.3-10.1-26.1-25.8-26.1-25.8
				L1049.4,165.9z"/>
		</g>
		<path class="st7" d="M990.8,205.2c-33.4,0-54.8-34-55.7-35.4c-0.8-1.3-0.4-3,0.9-3.8c0.4-0.3,0.9-0.4,1.4-0.4l112-0.9
			c1.1,0,2,0.6,2.5,1.5c0.5,0.9,0.4,2.1-0.3,2.9C1050.5,170.6,1024,205.2,990.8,205.2z M942.7,171.1c6.7,8.8,24.4,28.6,48.1,28.6
			s44.4-20.2,52.6-29.4L942.7,171.1z M937.4,168.4L937.4,168.4z"/>
		<path class="st9" d="M919.3,157.4c-0.5-17.1,33-31,73.8-31s73.8,13.8,73.8,31c-0.1,22.9-33,31-73.8,31S919.9,180.5,919.3,157.4z"
			/>
		<g class="st2">
			<path class="st3" d="M1066.1,155.9c-0.1,22.9-33,31-73.8,31s-73.2-7.9-73.8-31c-0.1-2.5,0.6-5,1.8-7.2
				c8.1,16,36.7,21.7,71.5,21.7c35.1,0,64.4-6,71.9-22.3C1065.2,150.4,1066.1,153.1,1066.1,155.9z"/>
		</g>
		<g class="st6">
			<path class="st5" d="M920.7,159.6c3.4-15.6,35.3-27.8,73.5-27.8c38.4,0,70.2,12.3,73.5,28.2c0.2-1.2,0.3-2.3,0.3-3.5
				c0-17.2-33.1-31-73.8-31s-74.3,13.9-73.8,31C920.5,157.6,920.6,158.6,920.7,159.6z"/>
		</g>
		<path class="st7" d="M993.1,191.1c-22.5,0-40.3-2.4-52.9-7c-15.3-5.6-23.3-14.6-23.6-26.7c-0.2-4.8,1.9-9.5,6-13.8
			c11.8-12.2,39.5-20.1,70.5-20.1c42.9,0,76.6,14.8,76.6,33.8c-0.1,12-8,21-23.5,26.7C1033.3,188.8,1015.5,191.1,993.1,191.1z
			 M993.1,129.1c-29.2,0-55.9,7.4-66.5,18.4c-3.1,3.2-4.6,6.5-4.5,9.7l0,0c0.6,23.4,39,28.3,71,28.3c26.5,0,70.9-3.7,71-28.2
			C1064.1,142.1,1031.6,129.2,993.1,129.1L993.1,129.1z"/>
		<ellipse class="st7" cx="991.1" cy="134.5" rx="4.9" ry="1.9"/>
		<ellipse class="st7" cx="973.3" cy="139.7" rx="4.9" ry="1.9"/>
		<ellipse class="st7" cx="990.8" cy="142.8" rx="4.9" ry="1.9"/>
		<ellipse class="st7" cx="1005" cy="150.3" rx="4.9" ry="1.9"/>
		<ellipse class="st7" cx="973.3" cy="150.3" rx="4.9" ry="1.9"/>
		<ellipse class="st7" cx="1008.7" cy="139.7" rx="4.9" ry="1.9"/>
	</g>
</g>
</svg>
