<svg xmlns="http://www.w3.org/2000/svg" viewBox="0 0 213.29 253.41"><defs><style>.cls-1{fill:#573e61;}.cls-2{fill:#fff;}.cls-3{opacity:0.6;}.cls-3,.cls-4{isolation:isolate;}.cls-4{opacity:0.2;}.cls-5{fill:#2a1010;}.cls-6{fill:#22152b;}.cls-7{fill:#3b224b;}.cls-8{fill:#ed6ca6;}.cls-9{fill:#f8ab2e;}.cls-10{fill:#d72828;}.cls-11{fill:#89bd2a;}.cls-12{fill:#ad561d;}.cls-13{fill:#ffce05;}</style></defs><g id="Layer_2" data-name="Layer 2"><g id="Layer_1-2" data-name="Layer 1"><path class="cls-1" d="M67.78,36c0-15.66-13.46-28.36-29.95-28.36s-30,12.7-30,28.36,13.46,28.37,30,28.37S67.78,51.64,67.78,36Z"/><path class="cls-2" d="M47.87,36c0-5.65-4.9-10.2-10.8-10.2S26.27,30.32,26.27,36s4.89,10.21,10.8,10.21S47.87,41.63,47.87,36Z"/><path class="cls-1" d="M148.34,38.74c0-15.67,13.46-28.37,29.95-28.37s30,12.7,30,28.37-13.46,28.37-30,28.37S148.34,54.4,148.34,38.74Z"/><path class="cls-2" d="M166.76,38.74c0-6,5.22-10.91,11.53-10.91s11.54,4.87,11.54,10.91-5.23,10.9-11.54,10.9S166.76,44.69,166.76,38.74Z"/><g class="cls-3"><path class="cls-2" d="M208.52,38.74a27.54,27.54,0,0,1-9,20.21,27.09,27.09,0,0,0,4.3-14.64c0-15.67-13.46-28.37-30-28.37a30.75,30.75,0,0,0-21,8.16,30.36,30.36,0,0,1,25.66-13.73C195.06,10.37,208.52,23.07,208.52,38.74Z"/></g><g class="cls-3"><path class="cls-2" d="M7.87,36a27.55,27.55,0,0,0,9,20.22,27.09,27.09,0,0,1-4.3-14.64c0-15.67,13.46-28.37,30-28.37a30.74,30.74,0,0,1,21,8.16A30.34,30.34,0,0,0,37.83,7.61C21.33,7.61,7.87,20.31,7.87,36Z"/></g><g class="cls-4"><path class="cls-5" d="M208.16,41.53c-.81,15-13.94,26.9-29.91,26.9-16.57.07-30-12.7-30-28.37A28.06,28.06,0,0,1,162.48,16c.92,8.87,7.77,18.14,18.43,23.47C190.39,44.19,200.6,44.7,208.16,41.53Z"/></g><g class="cls-4"><path class="cls-5" d="M7.89,38.08C8.7,53.06,21.83,65,37.81,65c16.56.07,30-12.7,30-28.37A28.06,28.06,0,0,0,53.57,12.5C52.65,21.37,45.81,30.64,35.14,36,25.66,40.74,15.45,41.25,7.89,38.08Z"/></g><path class="cls-6" d="M178.15,69.87a33,33,0,0,1-23.5-9.58,30.28,30.28,0,0,1-9.07-21.55c0-17.17,14.67-31.13,32.71-31.13S211,21.57,211,38.74s-14.67,31.13-32.72,31.13Zm.14-56.74c-15,0-27.19,11.49-27.19,25.61a24.78,24.78,0,0,0,7.45,17.64,27.54,27.54,0,0,0,19.61,8h.12c15,0,27.21-11.48,27.21-25.6S193.29,13.13,178.29,13.13Z"/><path class="cls-6" d="M38.1,67.11h-.3c-18,0-32.69-14-32.69-31.14S19.79,4.84,37.83,4.84,70.54,18.81,70.54,36a30.35,30.35,0,0,1-9.13,21.65A32.86,32.86,0,0,1,38.1,67.11Zm-.27-56.74c-15,0-27.2,11.48-27.2,25.6s12.2,25.61,27.2,25.61A27.37,27.37,0,0,0,57.52,53.7,24.86,24.86,0,0,0,65,36C65,21.85,52.82,10.37,37.83,10.37Z"/><path class="cls-6" d="M178.15,69.87a33,33,0,0,1-23.5-9.58,30.28,30.28,0,0,1-9.07-21.55c0-17.17,14.67-31.13,32.71-31.13S211,21.57,211,38.74s-14.67,31.13-32.72,31.13Zm.14-56.74c-15,0-27.19,11.49-27.19,25.61a24.78,24.78,0,0,0,7.45,17.64,27.54,27.54,0,0,0,19.61,8h.12c15,0,27.21-11.48,27.21-25.6S193.29,13.13,178.29,13.13Z"/><path class="cls-6" d="M178.15,69.87a33,33,0,0,1-23.5-9.58,30.28,30.28,0,0,1-9.07-21.55c0-17.17,14.67-31.13,32.71-31.13S211,21.57,211,38.74s-14.67,31.13-32.72,31.13Zm.14-56.74c-15,0-27.19,11.49-27.19,25.61a24.78,24.78,0,0,0,7.45,17.64,27.54,27.54,0,0,0,19.61,8h.12c15,0,27.21-11.48,27.21-25.6S193.29,13.13,178.29,13.13Z"/><path class="cls-2" d="M2.76,118.46c0-53.15,46.52-96.29,103.89-96.29s103.88,43.07,103.88,96.29S164,214.75,106.65,214.75,2.76,171.61,2.76,118.46Z"/><g class="cls-4"><path class="cls-5" d="M106.16,183.16c-51.88,0-94.9-35.3-102.64-81.37a90.76,90.76,0,0,0-1.24,14.92C2.28,169.86,48.8,213,106.16,213s103.89-43.14,103.89-96.29a89.8,89.8,0,0,0-1.25-14.93C201.07,147.86,158.05,183.16,106.16,183.16Z"/></g><path class="cls-6" d="M106.65,217.51C47.84,217.51,0,173.08,0,118.46s47.84-99,106.65-99,106.64,44.43,106.64,99.05S165.45,217.51,106.65,217.51Zm0-192.58c-55.76,0-101.13,42-101.13,93.53S50.89,212,106.65,212s101.12-42,101.12-93.53S162.4,24.93,106.65,24.93Z"/><path class="cls-7" d="M123.28,78.36c3.45-10.43,18.43-14.57,33.34-9.11s24.3,18.43,20.91,29-18.42,14.56-33.33,9.11S120,88.78,123.28,78.36Z"/><path class="cls-7" d="M88.08,76.7c-3.45-10.42-18.43-14.56-33.34-9.11S30.44,86,33.82,96.58s18.43,14.56,33.34,9.11C82.28,100.1,91.6,87.19,88.08,76.7Z"/><path class="cls-6" d="M106.65,111.77c6.35,0,15.66-9,12.83-14.29-3-5.46-22.15-6-25.4,0C90.36,104.31,100.29,111.77,106.65,111.77Z"/><path class="cls-6" d="M106.65,114.53c-5.23,0-11.76-3.85-14.57-8.58a9.57,9.57,0,0,1-.42-9.79c2.87-5.31,12-5.74,14.77-5.74h0c6,0,13.12,1.5,15.43,5.74,1.39,2.61,1.07,5.83-.89,9.09C118.29,109.81,112.16,114.53,106.65,114.53Zm-.16-18.59h0c-5.45,0-9.19,1.47-9.93,2.85-.27.5-1.08,2,.32,4.34,2,3.36,6.83,5.87,9.82,5.87s7.57-3.14,9.64-6.59c.43-.71,1.36-2.5.76-3.63S112.37,95.94,106.49,95.94Z"/><ellipse class="cls-2" cx="106.65" cy="97.62" rx="7.39" ry="2.76"/><path class="cls-6" d="M106.78,184.45c-42.17,0-81.65-36.24-64.95-62.61a28.12,28.12,0,0,1,5-6,17.89,17.89,0,0,1,4.83-3.11c15.19-6.42,34.79,12.36,54.12,13.46,18.43,0,40.38-18.29,58.39-11.46a21.76,21.76,0,0,1,4.08,2.07,22.86,22.86,0,0,1,3.65,2.83C195.62,141.24,149,184.45,106.78,184.45Z"/><path class="cls-2" d="M165.94,114.73c-11.6,11.81-33.76,19.81-59.23,19.81-24.71,0-46.31-7.52-58.18-18.7a17.73,17.73,0,0,1,4.83-3.11c15.18-6.42,34.79,12.36,54.11,13.46C126,126.19,147.92,107.9,165.94,114.73Z"/><g class="cls-4"><path class="cls-5" d="M165.94,114.69a44.66,44.66,0,0,1-5.32,4.6c-17.3-3.54-37.63,12.48-54.87,12.48-19.33-1.11-38.93-19.88-54.12-13.46l-.13,0c-1-.83-2-1.69-3-2.57a17.69,17.69,0,0,1,4.83-3.1c15.18-6.42,34.79,12.35,54.11,13.46C126,126.15,147.92,107.86,165.94,114.69Z"/></g><path class="cls-6" d="M106.71,187.14a85.47,85.47,0,0,1-40.3-10.54c-12-6.54-21.47-15.44-26.75-25-6-10.91-6.09-22-.23-31.26C51,101.89,66.81,109,82.08,115.81c7.83,3.52,15.93,7.15,23.75,7.62,7.14,0,15-3,23.29-6.23,14.63-5.62,31.21-12,44.69.33,7.31,6.69,9.18,15.93,5.27,26C171.08,164.12,138.43,187.14,106.71,187.14Zm-48.31-73c-5.53,0-10.14,2.52-14.3,9.12-6.07,9.57-3.13,19.23.4,25.65,10.26,18.65,37,32.72,62.21,32.72,13.5,0,28.3-4.58,41.66-12.9,12.38-7.71,21.94-17.87,25.56-27.19,3.12-8,1.82-14.73-3.85-19.93-11-10-24.57-4.78-39,.76-8.44,3.24-17.16,6.59-25.35,6.59h-.16c-8.86-.51-17.46-4.37-25.77-8.1C71.27,117,64.31,114.13,58.4,114.13Z"/><path class="cls-2" d="M91.94,26.79s0-7.24,8.35-15.94C107.13,3.6,122.18-4.61,115,14.71c0,0,14.42-16.08,22-8.83,7.31,7-7.94,19.88-16.09,23.26"/><g class="cls-4"><path class="cls-5" d="M137,5.88S108.65,34,116.48,14c0,0,2.09-5.92,0-9.69,0,0-.28,10-5.42,15.57-5.91,6.35-16.75,7.76-16.24-1.78,0,0-9.33,14.82,6.85,18.68C115.45,40.11,148.34,9.71,137,5.88Z"/></g><path class="cls-6" d="M91,26.79A6.43,6.43,0,0,1,90.4,25a8.12,8.12,0,0,1-.16-1.76,11.13,11.13,0,0,1,.58-3.36A19.57,19.57,0,0,1,94,14c.67-.86,1.34-1.73,2.06-2.53s1.43-1.6,2.14-2.4A39.07,39.07,0,0,1,103,4.76a31,31,0,0,1,5.66-3.46A14.92,14.92,0,0,1,112.19.14,8.63,8.63,0,0,1,114.45,0c.21,0,.44.07.66.11a3.12,3.12,0,0,1,.68.18c.23.08.47.18.7.28a5.23,5.23,0,0,1,.67.41,5.66,5.66,0,0,1,1.16,1.08c.14.2.27.41.4.62a4.16,4.16,0,0,1,.32.63,7.69,7.69,0,0,1,.56,2.3,14.46,14.46,0,0,1-.21,3.74,38.5,38.5,0,0,1-1.8,6.3l-4.65-2.81c.93-1,1.79-1.86,2.72-2.74s1.88-1.71,2.87-2.52A36.6,36.6,0,0,1,125,3.25,19.65,19.65,0,0,1,129,1.71a11.89,11.89,0,0,1,4.66-.37,9.27,9.27,0,0,1,4.66,2A9.11,9.11,0,0,1,140,5.14a7.53,7.53,0,0,1,.7,1.12l.3.6c.09.21.16.43.24.64a9.4,9.4,0,0,1,.17,5.08,15.27,15.27,0,0,1-1.68,4.1,30.35,30.35,0,0,1-5,6.22c-1.83,1.84-3.88,3.36-5.84,5a11.23,11.23,0,0,1-3.35,1.95,6.85,6.85,0,0,1-2,.42,5.79,5.79,0,0,1-2.27-.31,1.24,1.24,0,0,1-.75-1.6l0-.05,0-.05a8.66,8.66,0,0,1,2.21-3.16,15.54,15.54,0,0,1,2.76-2,18.19,18.19,0,0,0,2.8-2c.88-.72,1.73-1.48,2.53-2.26a24.67,24.67,0,0,0,4.08-5,9.72,9.72,0,0,0,1.09-2.59,3.77,3.77,0,0,0,0-2.07c0-.07,0-.15-.07-.22a2.12,2.12,0,0,1-.11-.21,2.33,2.33,0,0,0-.26-.41,4.05,4.05,0,0,0-.77-.78,3.66,3.66,0,0,0-1.92-.83,9.8,9.8,0,0,0-5.34,1.36A30.56,30.56,0,0,0,122,11.89c-.88.72-1.75,1.48-2.58,2.26s-1.69,1.63-2.4,2.41h0a2.76,2.76,0,0,1-4.63-2.82A33.53,33.53,0,0,0,114,8.44a8.88,8.88,0,0,0,.15-2.27,2.2,2.2,0,0,0-.13-.63s0,0,0,0,0,0,0,0,0,0,0,.06,0,0-.1,0a3.16,3.16,0,0,0-.75.06,9.81,9.81,0,0,0-2.2.74,26.33,26.33,0,0,0-4.62,2.85,32,32,0,0,0-4.16,3.72,26.28,26.28,0,0,0-3.43,4.43c-1,1.57-1.83,3.16-2.71,4.73a24.19,24.19,0,0,1-3.17,4.74l-.17.2a1,1,0,0,1-1.44.1A1.33,1.33,0,0,1,91,26.79Z"/><path class="cls-8" d="M183.4,109.42c0-2.35,3.38-4.35,7.6-4.35s7.59,2,7.59,4.35-3.38,4.35-7.59,4.35S183.4,111.9,183.4,109.42Z"/><path class="cls-8" d="M13.81,109.42c0-2.35,3.38-4.35,7.59-4.35s7.59,2,7.59,4.35-3.38,4.35-7.59,4.35S13.81,111.9,13.81,109.42Z"/><path class="cls-2" d="M156.4,89.15a18.7,18.7,0,0,0-4.59-2.88,10,10,0,0,0-5.84-.41c-.19,0-.39.08-.58.14l-.55.19a7.12,7.12,0,0,0-2,1.12,8.21,8.21,0,0,0-1.62,1.86,12.09,12.09,0,0,0-.67,1.18c-.2.41-.39.88-.55,1.28l0,.13a.76.76,0,0,1-1.45-.13,7.55,7.55,0,0,1-.16-1.75,8.06,8.06,0,0,1,.22-1.75,8.7,8.7,0,0,1,1.54-3.33A9.1,9.1,0,0,1,143,82.35l.86-.41c.29-.12.59-.2.89-.3a10.29,10.29,0,0,1,1.79-.41l.45-.08.47,0c.31,0,.63,0,.94,0s.63.05.94.07a5,5,0,0,1,.94.15,9.94,9.94,0,0,1,3.44,1.46,10.14,10.14,0,0,1,2.54,2.52,8.72,8.72,0,0,1,1.43,3.16.78.78,0,0,1-.6.92.76.76,0,0,1-.64-.15Z"/><path class="cls-2" d="M53.9,88.46a8.71,8.71,0,0,1,1.42-3.16,10.49,10.49,0,0,1,2.54-2.52,9.94,9.94,0,0,1,3.44-1.46,5.11,5.11,0,0,1,.94-.15c.31,0,.63-.08.94-.07s.63,0,.94,0l.47,0,.45.08a10.19,10.19,0,0,1,1.8.41c.29.1.59.18.88.3l.86.41a9,9,0,0,1,2.93,2.45,8.87,8.87,0,0,1,1.55,3.33,8.71,8.71,0,0,1,.21,1.75,7.55,7.55,0,0,1-.16,1.75.77.77,0,0,1-.9.59.78.78,0,0,1-.55-.46l0-.13c-.16-.4-.35-.87-.55-1.28a12.05,12.05,0,0,0-.66-1.18,8.5,8.5,0,0,0-1.63-1.86,7.12,7.12,0,0,0-2-1.12L66.23,86c-.18-.06-.39-.09-.58-.14a9.39,9.39,0,0,0-1.2-.2,9.29,9.29,0,0,0-4.63.61,18.74,18.74,0,0,0-4.6,2.88l-.08.07a.77.77,0,0,1-1.24-.76Z"/><path class="cls-9" d="M38.45,221.66c-.49-16.09,30.85-29,69.09-29s69.1,12.91,69.1,29c-.14,21.39-30.86,29-69.1,29S39.21,243.26,38.45,221.66Z"/><g class="cls-4"><path class="cls-5" d="M174.75,215.86c-4.73,17.48-33.42,23.84-68.41,23.84-33.54,0-61-5.72-67.59-21.83a12.5,12.5,0,0,0-.61,4.2c.76,21.6,31,29,69.09,29s69-7.59,69.1-29A13.48,13.48,0,0,0,174.75,215.86Z"/></g><path class="cls-9" d="M37.55,210.3c-.48-16.08,30.86-29,69.1-29s69.09,12.91,69.09,29c-.13,21.4-30.85,29-69.09,29S38.31,231.91,37.55,210.3Z"/><path class="cls-6" d="M107.54,253.41c-21,0-37.61-2.21-49.5-6.57-14.43-5.28-21.95-13.72-22.35-25.09h0c-.14-4.6,1.79-9,5.73-13.06,11.07-11.41,37-18.78,66.12-18.78,18.81,0,36.54,3.09,49.9,8.68,14.16,5.93,22,14.12,22,23.07C179.26,242.43,154.42,253.41,107.54,253.41ZM41.21,221.57c.77,21.75,36.5,26.31,66.33,26.31,24.71,0,66.19-3.41,66.34-26.24,0-6.47-6.77-13-18.57-18-12.71-5.32-29.67-8.25-47.77-8.25-27.25,0-52.23,6.87-62.16,17.1C42.52,215.48,41.12,218.52,41.21,221.57Z"/><path class="cls-10" d="M121.42,214.75c0,10-19.33,18.16-43.21,18.16S35,224.83,35,214.75c0-2.55,1.24-5,3.59-7.25,6.62-6.41,21.88-10.9,39.62-10.9,22.5,0,41,7.18,43,16.5A6.67,6.67,0,0,1,121.42,214.75Z"/><g class="cls-3"><path class="cls-2" d="M34.81,213.3c34.9,25.49,67.56,8.1,76.88,2.08v-.09a5,5,0,0,0,0-.66c-54.06,21.42-72.63-7-72.63-7a14.56,14.56,0,0,0-3.31,3.68A8.56,8.56,0,0,0,34.81,213.3Z"/></g><path class="cls-6" d="M78.21,235.67c-26.21,0-46-9-46-20.92,0-3.31,1.54-6.51,4.45-9.26,7.3-7.07,23.61-11.65,41.52-11.65,24.12,0,43.32,7.83,45.69,18.63a9.88,9.88,0,0,1,.28,2.28c0,6-5.09,11.49-14.34,15.38C101.34,233.7,90.11,235.67,78.21,235.67Zm0-36.31c-16.3,0-31.45,4.07-37.7,10.13-1.27,1.19-2.75,3-2.75,5.26,0,7.28,16.61,15.4,40.45,15.4s40.45-8.12,40.45-15.4a4.19,4.19,0,0,0-.13-1s0-.06,0-.09C117,206.79,101.2,199.36,78.21,199.36Z"/><path class="cls-6" d="M81.59,226.39c-24,0-43-7.73-45.34-18.38a2.38,2.38,0,0,1,.68-2.22c7.26-7,23.46-11.58,41.28-11.58,24,.08,43,7.81,45.33,18.38a2.37,2.37,0,0,1-.67,2.22C115.61,221.84,99.41,226.39,81.59,226.39ZM41.34,208.25c3,6.65,18.45,13.37,40.25,13.37,15.51,0,30-3.69,36.87-9.27-3-6.6-18.45-13.3-40.26-13.37C62.7,199,48.2,202.67,41.34,208.25Z"/><path class="cls-10" d="M177.33,214.76c0,9-17.26,16.22-38.59,16.22s-38.47-7.2-38.59-16.13v-.09c0-.23,0-.44,0-.66l.09-.59c1.52-8.42,18.16-15,38.52-15,14.7,0,27.54,3.46,34,8.56a15.11,15.11,0,0,1,3.31,3.68,8.56,8.56,0,0,1,.89,2A7.17,7.17,0,0,1,177.33,214.76Z"/><g class="cls-3"><path class="cls-2" d="M177.24,212.16c-34.9,25.5-67.56,8.11-76.88,2.09v-.09a4.89,4.89,0,0,1,0-.66c54.06,21.42,72.63-7,72.63-7a14.56,14.56,0,0,1,3.31,3.68A8.5,8.5,0,0,1,177.24,212.16Z"/></g><path class="cls-6" d="M138.74,233.73c-23.57,0-41.34-8.16-41.34-19a9.92,9.92,0,0,1,.17-1.69c1.81-10,19.15-17.29,41.24-17.29,14.88,0,28.57,3.51,35.74,9.15l0,.05c3.64,3,5.49,6.31,5.49,9.78C180.09,225.57,162.31,233.73,138.74,233.73Zm.07-32.44c-20,0-34.69,6.57-35.8,12.71a6.51,6.51,0,0,0-.09.75c0,6.37,14.71,13.46,35.82,13.46s35.83-7.09,35.83-13.46c0-1.75-1.17-3.6-3.46-5.51C165,204.41,152.28,201.29,138.81,201.29Z"/><path class="cls-6" d="M134.26,224.46c-14.8,0-28.4-3.48-35.51-9.08a2.36,2.36,0,0,1-.87-2.29c1.77-9.82,19-16.94,40.86-16.94,14.79.06,28.39,3.54,35.5,9.06a2.37,2.37,0,0,1,.88,2.3C173.35,217.33,156.16,224.46,134.26,224.46ZM103,212.58c6.63,4.41,18.37,7.1,31.25,7.1,19.38,0,33-5.81,35.72-11.65-6.6-4.29-18.58-7.05-31.25-7.11C119.35,200.92,105.77,206.74,103,212.58Z"/><path class="cls-11" d="M172.15,207.23c-6.7,2.83-8.84-2.55-13.94-.41s-4.42,11.25-14,12.84-17.18-5.53-22.36-5.53-7.66,9.12-17.4,9.12-12-8.29-17-9-8.42,8.49-17.81,5.11S60.19,210,55.5,207.71s-9.81,6.56-17.54-2.27c-2.73-3.12-2.61-7.4-1.31-11.63.22-.73.48-1.47.77-2.19a56.09,56.09,0,0,1,7.93-13.1l117.27,1.93c7.63,4.49,11.68,9.79,13.21,14.53a15,15,0,0,1,.72,4C176.7,202.92,174.94,206.05,172.15,207.23Z"/><g class="cls-3"><path class="cls-2" d="M175.83,195C112.6,224,57.61,205.3,36.65,193.81c.22-.73.48-1.47.77-2.19a56.09,56.09,0,0,1,7.93-13.1l117.27,1.93C170.25,184.94,174.3,190.24,175.83,195Z"/></g><g class="cls-4"><path class="cls-5" d="M172.15,207.23c-6.7,2.83-8.84-2.55-13.94-.41s-4.42,11.25-14,12.84-17.18-5.53-22.36-5.53-7.66,9.12-17.4,9.12-12-8.29-17-9-8.42,8.49-17.81,5.11S60.19,210,55.5,207.71s-9.81,6.56-17.54-2.27c-3.21-3.67-2.48-8.92-.54-13.82.89,1.52,1.28,4.48,2,5.64a11.52,11.52,0,0,0,6.55,5c4.55,1.26,9.67-.29,14,1.64,3.7,1.67,6.13,5.64,10,6.81,3.36,1,6.92-.31,10.38-1a27.63,27.63,0,0,1,15.74,1.63c3,1.27,6,3.13,9.32,2.87,3.6-.29,6.47-3,9.84-4.34,9.06-3.47,19.69,4.09,28.65.36,2.69-1.12,4.88-3.15,7.31-4.74a25.43,25.43,0,0,1,13-4.1c3-.11,6,.29,8.82-.6a11,11,0,0,0,3.55-1.91C176.7,202.92,174.94,206.05,172.15,207.23Z"/></g><path class="cls-6" d="M104.51,226c-7,0-10.8-3.64-13.6-6.3-1.43-1.37-2.67-2.54-3.76-2.7-.84-.11-2.17.88-3.59,1.92-3.06,2.23-7.69,5.61-14.78,3.05a22.74,22.74,0,0,1-11.1-8.46,10.45,10.45,0,0,0-3.39-3.31c-.62-.31-1.66.05-3.31.67-3.57,1.35-9,3.39-15.09-3.62-9-10.31,5.64-28.47,7.34-30.51a2.75,2.75,0,0,1,2.17-1l117.27,1.94a2.57,2.57,0,0,1,1.35.38c10.09,5.93,15.8,14.26,15.27,22.29-.29,4.41-2.56,7.93-6.06,9.41a12.17,12.17,0,0,1-10-.05c-1.78-.65-2.62-.91-3.95-.36-1.12.47-1.89,1.76-3.05,3.83-1.9,3.38-4.5,8-11.5,9.19-6.66,1-12.29-1.47-16.81-3.47-2.35-1-4.58-2-6-2-1.08,0-2.41,1.27-4,2.74C115.11,222.32,111.24,226,104.51,226ZM87,211.48a6.1,6.1,0,0,1,.84.05c2.89.4,4.9,2.32,6.85,4.17,2.58,2.46,5,4.78,9.79,4.78,4.52,0,7.12-2.47,9.63-4.85,2.2-2.1,4.47-4.26,7.76-4.26,2.59,0,5.21,1.15,8.24,2.49,4.07,1.79,8.68,3.83,13.71,3.06,4.35-.72,5.84-3.37,7.56-6.44,1.31-2.33,2.8-5,5.73-6.21,3.38-1.42,5.93-.48,8,.27s3.38,1.23,6,.15c1.54-.66,2.55-2.41,2.7-4.69.29-4.46-2.71-11.17-11.94-16.8L46.66,181.3c-3.89,5-11.29,17-6.62,22.32,3.61,4.12,5.75,3.31,9,2.09,2.17-.82,4.87-1.84,7.67-.48A15.26,15.26,0,0,1,62,210.12a17.26,17.26,0,0,0,8.62,6.66c4.32,1.56,6.79-.24,9.65-2.33C82.23,213.05,84.39,211.48,87,211.48Z"/><path class="cls-12" d="M37.69,176.86c0-16.09,30.85-29,69.09-29s69.1,12.9,69.1,29-30.86,29-69.1,29S37.69,192.94,37.69,176.86Z"/><path class="cls-6" d="M106.78,208.61c-18.86,0-36.6-3.08-49.95-8.68-14.12-5.92-21.9-14.11-21.9-23.07s7.78-17.16,21.9-23.08c13.35-5.59,31.09-8.67,50-8.67s36.54,3.08,49.91,8.67c14.15,5.93,21.95,14.12,21.95,23.08s-7.78,17.15-21.9,23.07C143.39,205.53,125.65,208.61,106.78,208.61Zm0-58c-35.95,0-66.33,12-66.33,26.23s30.38,26.23,66.33,26.23,66.34-12,66.34-26.23c0-6.49-6.77-13-18.57-18C141.84,153.56,124.88,150.63,106.78,150.63Z"/><path class="cls-13" d="M163.24,167.47s-12.61,16.74-31,27.06c-8.23,4.61-17.61,7.94-27.56,7.94-10.34,0-19.54-3.51-27.26-8.28C61,184.1,51.28,168.37,51.28,168.37Z"/><g class="cls-4"><path class="cls-5" d="M163.24,165.89s-12.61,16.74-31,27.06a242.44,242.44,0,0,1-54.82-.35c-16.36-10.08-26.1-25.81-26.1-25.81Z"/></g><path class="cls-6" d="M104.64,205.23c-33.39,0-54.81-34-55.7-35.41a2.76,2.76,0,0,1,2.32-4.21l112-.9a2.71,2.71,0,0,1,2.49,1.52,2.74,2.74,0,0,1-.26,2.9C164.34,170.6,137.87,205.23,104.64,205.23Zm-48-34.14c6.72,8.83,24.41,28.61,48.05,28.61s44.41-20.21,52.64-29.42Zm-5.3-2.72Z"/><path class="cls-9" d="M33.13,157.39c-.55-17.12,33-31,73.79-31s73.79,13.8,73.79,31c-.14,22.85-33,31-73.79,31S33.75,180.52,33.13,157.39Z"/><g class="cls-4"><path class="cls-5" d="M180,155.88c-.13,22.85-33,31-73.78,31S33,179,32.38,155.88a13.7,13.7,0,0,1,1.82-7.18c8.1,16,36.69,21.68,71.49,21.68,35.13,0,64.38-6,71.9-22.32A14.77,14.77,0,0,1,180,155.88Z"/></g><g class="cls-3"><path class="cls-2" d="M34.61,159.62C38,144,69.86,131.79,108.11,131.79c38.43,0,70.14,12.34,73.49,28.21a23.24,23.24,0,0,0,.3-3.49c0-17.19-33.14-31-73.79-31-40.8,0-74.34,13.88-73.79,31A22.46,22.46,0,0,0,34.61,159.62Z"/></g><path class="cls-6" d="M106.92,191.15c-22.46,0-40.26-2.36-52.93-7-15.35-5.62-23.29-14.59-23.62-26.68-.15-4.83,1.88-9.46,6-13.76,11.8-12.19,39.48-20.07,70.51-20.07,42.93,0,76.55,14.82,76.55,33.75-.07,12-8,21-23.46,26.66C147.18,188.76,129.32,191.15,106.92,191.15Zm0-62c-29.15,0-55.89,7.39-66.55,18.4-3.08,3.18-4.58,6.46-4.48,9.74v0c.63,23.39,39,28.3,71,28.3,26.46,0,70.88-3.67,71-28.24C178,142.09,145.42,129.16,106.92,129.16Z"/><ellipse class="cls-6" cx="104.99" cy="134.54" rx="4.9" ry="1.86"/><ellipse class="cls-6" cx="87.18" cy="139.72" rx="4.9" ry="1.86"/><ellipse class="cls-6" cx="104.71" cy="142.76" rx="4.9" ry="1.86"/><ellipse class="cls-6" cx="118.86" cy="150.28" rx="4.9" ry="1.86"/><ellipse class="cls-6" cx="87.18" cy="150.28" rx="4.9" ry="1.86"/><ellipse class="cls-6" cx="122.59" cy="139.72" rx="4.9" ry="1.86"/></g></g></svg>